<svg xmlns="http://www.w3.org/2000/svg" width="75" height="50" fill="none" viewBox="0 0 75 50">
  <path fill="#fff" d="M37.5 50c-1.12 0-2.093-.41-2.919-1.232-.825-.822-1.238-1.79-1.238-2.905 0-1.115.413-2.084 1.238-2.905.826-.822 1.799-1.233 2.919-1.233s2.093.411 2.919 1.233c.825.821 1.238 1.79 1.238 2.905 0 1.115-.413 2.083-1.238 2.905C39.593 49.589 38.62 50 37.5 50ZM16.893 32.658l-1.858-1.848c3.125-3.17 6.565-5.575 10.32-7.218 3.753-1.644 7.806-2.465 12.16-2.465 4.353 0 8.402.821 12.146 2.465 3.744 1.643 7.179 4.02 10.304 7.13l-1.858 1.936c-2.889-2.875-6.087-5.061-9.596-6.558A27.78 27.78 0 0 0 37.5 23.856 27.78 27.78 0 0 0 26.489 26.1c-3.509 1.497-6.707 3.683-9.596 6.558ZM1.946 17.694 0 15.757c4.835-4.812 10.436-8.641 16.804-11.488C23.172 1.423 30.071 0 37.5 0c7.43 0 14.328 1.423 20.696 4.27C64.564 7.115 70.166 10.944 75 15.756l-1.946 1.937a53.94 53.94 0 0 0-16.14-10.96C50.87 4.064 44.398 2.73 37.5 2.73c-6.899 0-13.37 1.335-19.413 4.005a53.94 53.94 0 0 0-16.141 10.96Z"/>
</svg>
