<svg xmlns="http://www.w3.org/2000/svg" width="19" height="50" fill="none" viewBox="0 0 19 50">
  <path fill="#fff" d="M3.466 48.583h12.068c.599 0 1.091-.194 1.476-.58.385-.387.578-.881.578-1.482V30.283a10.036 10.036 0 0 1-3.466 3.093c-1.412.774-2.953 1.16-4.622 1.16s-3.21-.386-4.622-1.16a10.037 10.037 0 0 1-3.466-3.092V46.52c0 .601.193 1.095.578 1.482.385.386.877.58 1.476.58Zm6.012-15.464c2.24 0 4.152-.788 5.735-2.362 1.583-1.574 2.375-3.485 2.375-5.734 0-2.25-.784-4.168-2.353-5.758-1.568-1.589-3.472-2.384-5.713-2.384-2.24 0-4.152.788-5.735 2.362-1.583 1.574-2.375 3.485-2.375 5.734 0 2.25.784 4.168 2.353 5.758 1.568 1.589 3.472 2.384 5.713 2.384ZM1.412 19.717a10.037 10.037 0 0 1 3.466-3.093c1.413-.773 2.953-1.16 4.622-1.16s3.21.386 4.622 1.16a10.036 10.036 0 0 1 3.466 3.093V3.479c0-.601-.193-1.095-.578-1.482-.385-.386-.877-.58-1.476-.58H3.466c-.599 0-1.091.194-1.476.58-.385.387-.578.881-.578 1.482v16.238ZM3.466 50c-.974 0-1.796-.335-2.464-1.006C.334 48.324 0 47.5 0 46.521V3.479c0-.978.334-1.803 1.002-2.473C1.67.336 2.492 0 3.466 0h12.068c.975 0 1.796.335 2.464 1.006C18.666 1.676 19 2.5 19 3.479v43.042c0 .978-.334 1.803-1.002 2.473-.668.67-1.49 1.006-2.464 1.006H3.466Zm6.019-22.1c-.8 0-1.48-.282-2.037-.844a2.8 2.8 0 0 1-.837-2.048c0-.803.28-1.5.84-2.088.56-.59 1.241-.884 2.041-.884.8 0 1.494.296 2.08.887.587.591.88 1.289.88 2.093 0 .803-.294 1.484-.883 2.044s-1.284.84-2.084.84Zm.024-19.46c.38 0 .718-.153 1.018-.46.3-.306.45-.65.45-1.03s-.153-.721-.459-1.022c-.306-.3-.648-.451-1.027-.451-.38 0-.718.153-1.018.46-.3.307-.45.65-.45 1.03 0 .381.153.722.459 1.023.306.3.648.45 1.027.45Z"/>
</svg>
