<svg xmlns="http://www.w3.org/2000/svg" width="50" height="50" fill="none" viewBox="0 0 50 50">
  <path fill="#fff" d="m33.764 36.853-9.77-9.77V13.218h2.012v13.075l9.123 9.124-1.365 1.436ZM23.994 7.76V2.01h2.012v5.75h-2.012Zm18.247 18.247v-2.012h5.748v2.012H42.24ZM23.994 47.989V42.24h2.012v5.748h-2.012ZM2.011 26.006v-2.012H7.76v2.012H2.01ZM25.012 50c-3.456 0-6.706-.656-9.75-1.968-3.045-1.311-5.692-3.092-7.944-5.34-2.252-2.25-4.034-4.894-5.347-7.934C.657 31.718 0 28.469 0 25.012c0-3.456.656-6.706 1.968-9.75 1.311-3.045 3.092-5.692 5.34-7.944 2.25-2.252 4.894-4.034 7.934-5.347C18.282.657 21.531 0 24.988 0c3.456 0 6.706.656 9.75 1.968 3.045 1.311 5.692 3.092 7.944 5.34 2.252 2.25 4.034 4.894 5.347 7.934C49.343 18.282 50 21.531 50 24.988c0 3.456-.656 6.706-1.968 9.75-1.311 3.045-3.092 5.692-5.34 7.944-2.25 2.252-4.894 4.034-7.934 5.347C31.718 49.343 28.469 50 25.012 50ZM25 47.989c6.418 0 11.853-2.227 16.307-6.681 4.454-4.455 6.681-9.89 6.681-16.308 0-6.418-2.227-11.853-6.68-16.307C36.852 4.239 31.417 2.01 25 2.01c-6.418 0-11.853 2.228-16.307 6.682C4.239 13.147 2.01 18.583 2.01 25c0 6.418 2.228 11.853 6.682 16.307 4.454 4.454 9.89 6.681 16.307 6.681Z"/>
</svg>
