<svg xmlns="http://www.w3.org/2000/svg" width="70" height="50" fill="none" viewBox="0 0 70 50">
  <path fill="#fff" d="M10.267 50c-2.885 0-5.317-.992-7.297-2.976C.99 45.04 0 42.59 0 39.676c0-.43.014-.844.042-1.24.029-.398.1-.823.213-1.276L7.382 8.588c.664-2.555 2.016-4.625 4.056-6.21S15.803 0 18.412 0h33.091c2.61 0 4.934.793 6.974 2.378s3.392 3.655 4.056 6.21l7.128 28.572c.113.453.198.893.254 1.318.057.425.085.853.085 1.283 0 2.914-1.004 5.35-3.012 7.305C64.98 49.022 62.535 50 59.654 50c-1.983 0-3.795-.524-5.436-1.573a10.738 10.738 0 0 1-3.818-4.21l-2.46-5.016a4.517 4.517 0 0 0-2.037-2.105 6.196 6.196 0 0 0-2.885-.701H26.897a6.375 6.375 0 0 0-2.874.68c-.912.453-1.595 1.162-2.047 2.126l-2.46 5.017c-.85 1.814-2.113 3.231-3.792 4.251A10.32 10.32 0 0 1 10.267 50Zm.212-1.87c1.555 0 3.003-.41 4.341-1.231a7.641 7.641 0 0 0 2.998-3.362l2.376-4.932c.664-1.287 1.592-2.29 2.783-3.006a7.467 7.467 0 0 1 3.92-1.075h16.121c1.454 0 2.766.388 3.936 1.163a9.213 9.213 0 0 1 2.852 3.004l2.376 4.846a7.627 7.627 0 0 0 3.005 3.362 8.2 8.2 0 0 0 4.35 1.23c2.358 0 4.366-.793 6.024-2.38 1.658-1.588 2.487-3.544 2.487-5.868 0-.284-.084-1.049-.254-2.296L60.667 9.099C60.1 7 58.97 5.272 57.273 3.912c-1.697-1.361-3.62-2.041-5.77-2.041h-33.09c-2.21 0-4.162.678-5.858 2.035-1.696 1.357-2.798 3.088-3.307 5.193L2.121 37.585c0 .227-.085.964-.254 2.21 0 2.411.841 4.403 2.525 5.975 1.683 1.573 3.712 2.36 6.087 2.36Zm29.586-27.807c.555 0 1.044-.218 1.468-.654.425-.436.637-.932.637-1.488 0-.556-.218-1.047-.653-1.472-.435-.425-.93-.638-1.485-.638-.554 0-1.044.218-1.468.654-.425.437-.637.933-.637 1.488 0 .557.218 1.047.653 1.472.435.425.93.638 1.485.638Zm6.788-6.803c.554 0 1.044-.218 1.468-.653.425-.437.637-.933.637-1.489s-.218-1.046-.653-1.472c-.435-.425-.93-.637-1.485-.637s-1.044.218-1.468.654c-.425.436-.637.932-.637 1.488 0 .556.218 1.046.653 1.472.435.425.93.637 1.484.637Zm0 13.606c.554 0 1.044-.218 1.468-.654.425-.437.637-.933.637-1.488 0-.556-.218-1.047-.653-1.472-.435-.425-.93-.638-1.485-.638s-1.044.218-1.468.654c-.425.437-.637.933-.637 1.488 0 .556.218 1.047.653 1.472.435.425.93.638 1.484.638Zm6.787-6.803c.555 0 1.045-.218 1.47-.654.423-.436.636-.932.636-1.488 0-.556-.218-1.047-.653-1.472-.436-.425-.93-.638-1.485-.638s-1.044.218-1.469.654c-.424.437-.636.933-.636 1.488 0 .557.218 1.047.653 1.472.435.425.93.638 1.484.638ZM23.067 25.17c.29 0 .55-.096.775-.289a.92.92 0 0 0 .34-.731v-4.932h4.836c.277 0 .53-.096.76-.286a.9.9 0 0 0 .343-.723c0-.291-.114-.55-.343-.777-.23-.227-.483-.34-.76-.34h-4.836v-4.847c0-.278-.115-.532-.345-.761-.23-.23-.491-.345-.782-.345a.88.88 0 0 0-.715.345 1.18 1.18 0 0 0-.28.76v4.848h-4.92a.91.91 0 0 0-.73.346 1.19 1.19 0 0 0-.289.783c0 .291.096.53.289.717.192.186.435.28.73.28h4.92v4.932a1 1 0 0 0 .286.731c.19.193.43.29.72.29Z"/>
</svg>
