<?xml version="1.0" encoding="utf-8"?>
<svg xmlns="http://www.w3.org/2000/svg" height="48px" viewBox="0 -960 960 960" width="48px" fill="#FFFFFF">
  <path d="M 56.706 -56.702 L 56.706 -113.21 L 156.306 -113.21 L 156.306 -831.48 C 156.306 -851.02 163.394 -867.87 177.57 -882.03 C 191.746 -896.22 208.6 -903.3 228.129 -903.3 L 731.875 -903.3 C 751.405 -903.3 768.255 -896.22 782.435 -882.03 C 796.615 -867.87 803.695 -851.02 803.695 -831.48 L 803.695 -113.21 L 903.295 -113.21 L 903.295 -56.702 L 56.706 -56.702 Z M 747.195 -113.21 L 747.195 -831.48 C 747.195 -835.31 745.605 -838.82 742.415 -842.01 C 739.215 -845.2 735.705 -846.79 731.875 -846.79 L 228.129 -846.79 C 224.302 -846.79 220.791 -845.2 217.597 -842.01 C 214.409 -838.82 212.816 -835.31 212.816 -831.48 L 212.816 -113.21 L 747.195 -113.21 Z M 591.671 -444.29 C 602.708 -444.29 611.876 -447.94 619.195 -455.25 C 626.513 -462.57 630.178 -471.75 630.178 -482.77 C 630.178 -493.82 626.513 -503 619.195 -510.31 C 611.876 -517.63 602.708 -521.27 591.671 -521.27 C 580.634 -521.27 571.466 -517.63 564.137 -510.31 C 556.828 -503 553.174 -493.82 553.174 -482.77 C 553.174 -471.75 556.828 -462.57 564.137 -455.25 C 571.466 -447.94 580.634 -444.29 591.671 -444.29 Z M 212.816 -846.79 L 212.816 -113.21 L 212.816 -846.79 Z" style="stroke-width: 1;"/>
</svg>