<svg xmlns="http://www.w3.org/2000/svg" width="50" height="50" fill="none" viewBox="0 0 50 50">
  <path fill="#fff" d="M0 50v-1.786h6.494V4.384c0-1.234.422-2.272 1.267-3.117C8.606.422 9.644 0 10.877 0h28.246c1.233 0 2.272.422 3.116 1.267.845.845 1.268 1.883 1.268 3.116v43.831H50V50H0Zm41.72-1.786V4.384c0-.65-.27-1.245-.81-1.787-.542-.54-1.137-.811-1.787-.811H10.877c-.65 0-1.245.27-1.786.811-.541.542-.812 1.137-.812 1.786v43.831h33.442ZM32.63 27.03c.62 0 1.126-.197 1.52-.59.393-.394.59-.9.59-1.52s-.197-1.127-.59-1.52c-.394-.394-.9-.59-1.52-.59s-1.126.196-1.52.59c-.393.393-.59.9-.59 1.52s.197 1.126.59 1.52c.394.393.9.59 1.52.59Z"/>
</svg>
