<svg xmlns="http://www.w3.org/2000/svg" width="45" height="50" fill="none" viewBox="0 0 45 50">
  <path fill="#fff" d="M15.633 50v-5.93c-4.578-1.464-8.328-4.148-11.25-8.052C1.461 32.113 0 27.623 0 22.548c0-3.124.584-6.052 1.753-8.785 1.17-2.733 2.776-5.125 4.822-7.174 2.045-2.05 4.432-3.66 7.159-4.832C16.46.586 19.359 0 22.427 0c3.117 0 6.039.586 8.766 1.757 2.727 1.171 5.114 2.782 7.16 4.832 2.045 2.05 3.664 4.44 4.857 7.174 1.193 2.733 1.79 5.661 1.79 8.785 0 5.026-1.461 9.492-4.383 13.396-2.922 3.905-6.672 6.589-11.25 8.053V50H27.76v-5.49a24.83 24.83 0 0 1-2.63.439 24.419 24.419 0 0 1-5.333 0 21.519 21.519 0 0 1-2.557-.44V50h-1.607Zm6.867-6.369c5.796 0 10.727-2.038 14.793-6.113 4.067-4.075 6.1-9.016 6.1-14.824s-2.033-10.75-6.1-14.824C33.227 3.795 28.296 1.757 22.5 1.757c-5.796 0-10.726 2.038-14.793 6.113-4.067 4.075-6.1 9.016-6.1 14.824s2.033 10.75 6.1 14.824c4.067 4.075 8.997 6.113 14.793 6.113Zm-9.789-28.916h19.578v-1.611H12.711v1.61Zm7.451 22.693 5.552-5.563-3.652-3.66 4.164-4.173-1.388-1.391-5.552 5.564 3.652 3.66-4.164 4.173 1.388 1.39Z"/>
</svg>
