<!DOCTYPE svg PUBLIC "-//W3C//DTD SVG 1.1//EN" "http://www.w3.org/Graphics/SVG/1.1/DTD/svg11.dtd">
<!-- Uploaded to: SVG Repo, www.svgrepo.com, Transformed by: SVG Repo Mixer Tools -->
<svg fill="#ffffff" width="800px" height="800px" viewBox="-10.57 0 61.13 61.13" xmlns="http://www.w3.org/2000/svg">
<g id="SVGRepo_bgCarrier" stroke-width="0"/>
<g id="SVGRepo_tracerCarrier" stroke-linecap="round" stroke-linejoin="round"/>
<g id="SVGRepo_iconCarrier"> <g id="_27" data-name="27" transform="translate(-295 -844.935)"> <g id="Group_18" data-name="Group 18"> <path id="Path_147" data-name="Path 147" d="M295,900.365a2.507,2.507,0,0,0,2.264,2.682h35.472A2.507,2.507,0,0,0,335,900.365v-36.94H295Zm4.352-25.43a1.686,1.686,0,1,1,3.372,0v7.923a1.686,1.686,0,1,1-3.372,0Z"/> <path id="Path_148" data-name="Path 148" d="M335,847.616a2.506,2.506,0,0,0-2.264-2.681H297.264A2.506,2.506,0,0,0,295,847.616V862.67h40Zm-32.276,9.544a1.725,1.725,0,0,1-3.372,0v-6.34a1.726,1.726,0,0,1,3.372,0Z"/> </g> <g id="Group_19" data-name="Group 19"> <rect id="Rectangle_41" data-name="Rectangle 41" width="7.547" height="2.264" transform="translate(299.534 903.802)"/> <rect id="Rectangle_42" data-name="Rectangle 42" width="7.547" height="2.264" transform="translate(322.919 903.802)"/> </g> </g> </g>
</svg>