<svg xmlns="http://www.w3.org/2000/svg" width="38" height="50" fill="none" viewBox="0 0 38 50">
  <path fill="#fff" d="M7.657 50c-2.106 0-3.908-.76-5.407-2.28C.75 46.202 0 44.376 0 42.242V13.506c0-2.134.75-3.96 2.25-5.48 1.499-1.52 3.301-2.279 5.407-2.279h4.892V0h1.56v5.747h9.783V0h1.56v5.747h4.891c2.106 0 3.909.76 5.408 2.279 1.5 1.52 2.249 3.346 2.249 5.48V42.24c0 2.134-.75 3.96-2.249 5.48-1.5 1.52-3.301 2.28-5.408 2.28H7.657Zm0-1.58h22.686c1.712 0 3.156-.596 4.333-1.788 1.176-1.192 1.764-2.655 1.764-4.39V13.505c0-1.735-.588-3.198-1.764-4.39-1.177-1.192-2.62-1.788-4.333-1.788H7.657c-1.713 0-3.157.596-4.333 1.788-1.176 1.192-1.764 2.655-1.764 4.39V42.24c0 1.736.588 3.199 1.764 4.39 1.176 1.193 2.62 1.788 4.333 1.788ZM9.5 16.953h19v-1.58h-19v1.58Zm9.488 22.198c1.331 0 2.446-.455 3.344-1.365.898-.91 1.347-1.998 1.347-3.265 0-1.032-.3-1.919-.899-2.66-.6-.742-1.86-2.263-3.78-4.563-1.938 2.299-3.202 3.82-3.793 4.566-.59.745-.886 1.614-.886 2.608 0 1.3.445 2.404 1.335 3.314.89.91 2 1.365 3.332 1.365Z"/>
</svg>
