<svg xmlns="http://www.w3.org/2000/svg" width="43" height="50" fill="none" viewBox="0 0 43 50">
  <path fill="#fff" d="M1.765 28.211c0 4.174 1.163 7.981 3.49 11.423 2.326 3.442 5.442 5.922 9.346 7.44a10.088 10.088 0 0 1-1.324-2.765 10.092 10.092 0 0 1-.441-2.927 7.96 7.96 0 0 1 .682-3.252 9.192 9.192 0 0 1 1.885-2.764l6.097-6.098 6.177 6.098a8.608 8.608 0 0 1 1.845 2.764 8.393 8.393 0 0 1 .642 3.252 10.1 10.1 0 0 1-.441 2.927 10.088 10.088 0 0 1-1.324 2.764c3.904-1.517 7.02-3.997 9.346-7.439 2.327-3.442 3.49-7.25 3.49-11.423 0-2.764-.535-5.42-1.604-7.967a21.5 21.5 0 0 0-4.573-6.83 12.219 12.219 0 0 1-3.41 1.708c-1.203.38-2.42.57-3.65.57-3.316 0-6.15-1.112-8.504-3.334-2.353-2.223-3.636-5.04-3.85-8.456v-.487a43.408 43.408 0 0 0-5.897 5.61c-1.738 2.005-3.195 4.078-4.372 6.219-1.177 2.14-2.072 4.309-2.688 6.504-.615 2.195-.922 4.35-.922 6.463ZM21.5 31.79l-4.894 4.878a7.054 7.054 0 0 0-1.484 2.195 6.35 6.35 0 0 0-.521 2.52c0 1.897.668 3.51 2.005 4.837 1.337 1.328 2.969 1.992 4.894 1.992 1.925 0 3.557-.664 4.894-1.992 1.337-1.327 2.005-2.94 2.005-4.837 0-.921-.174-1.788-.521-2.601a6.156 6.156 0 0 0-1.484-2.114L21.5 31.789ZM17.328 0v3.17c0 3.036 1.03 5.583 3.089 7.643 2.06 2.06 4.586 3.09 7.581 3.09a9.579 9.579 0 0 0 3.008-.488 12.03 12.03 0 0 0 2.849-1.382l1.363-.895c2.46 2.06 4.372 4.594 5.736 7.602A22.682 22.682 0 0 1 43 28.21c0 6.07-2.086 11.22-6.258 15.447C32.572 47.886 27.49 50 21.5 50s-11.07-2.114-15.243-6.342C2.086 39.431 0 34.282 0 28.211c0-5.149 1.538-10.27 4.613-15.365C7.688 7.75 11.927 3.468 17.328 0Z"/>
</svg>
