<svg xmlns="http://www.w3.org/2000/svg" width="38" height="50" fill="none" viewBox="0 0 38 50">
  <path fill="#fff" d="M5.994 40.46c-.663 0-1.216-.22-1.66-.663-.445-.443-.667-.99-.667-1.645 0-.654.224-1.2.672-1.639.448-.438 1.004-.658 1.667-.658s1.216.222 1.66.664c.445.442.667.99.667 1.645 0 .654-.224 1.2-.672 1.639-.448.438-1.004.658-1.667.658Zm13 0c-.663 0-1.216-.22-1.66-.663-.445-.443-.667-.99-.667-1.645 0-.654.224-1.2.672-1.639.449-.438 1.004-.658 1.667-.658s1.216.222 1.66.664c.445.442.667.99.667 1.645 0 .654-.224 1.2-.672 1.639-.449.438-1.004.658-1.667.658Zm13 0c-.663 0-1.216-.22-1.66-.663-.445-.443-.667-.99-.667-1.645 0-.654.224-1.2.672-1.639.449-.438 1.004-.658 1.667-.658s1.216.222 1.66.664c.445.442.667.99.667 1.645 0 .654-.224 1.2-.672 1.639-.449.438-1.004.658-1.667.658ZM0 27.633V25.33c0-4.99 1.736-9.28 5.208-12.87 3.473-3.591 7.68-5.551 12.625-5.88V0h2.334v6.579c4.944.329 9.152 2.289 12.625 5.88 3.472 3.59 5.208 7.88 5.208 12.87v2.303H0Zm2.333-2.303h33.334c0-4.55-1.625-8.43-4.875-11.637-3.25-3.207-7.18-4.81-11.792-4.81-4.611 0-8.542 1.603-11.792 4.81S2.333 20.78 2.333 25.33ZM5.994 50c-.663 0-1.216-.221-1.66-.664-.445-.442-.667-.99-.667-1.644 0-.654.224-1.2.672-1.64.448-.438 1.004-.657 1.667-.657s1.216.221 1.66.663c.445.443.667.991.667 1.645s-.224 1.2-.672 1.64c-.448.438-1.004.657-1.667.657Zm13 0c-.663 0-1.216-.221-1.66-.664-.445-.442-.667-.99-.667-1.644 0-.654.224-1.2.672-1.64.449-.438 1.004-.657 1.667-.657s1.216.221 1.66.663c.445.443.667.991.667 1.645s-.224 1.2-.672 1.64c-.449.438-1.004.657-1.667.657Zm13 0c-.663 0-1.216-.221-1.66-.664-.445-.442-.667-.99-.667-1.644 0-.654.224-1.2.672-1.64.449-.438 1.004-.657 1.667-.657s1.216.221 1.66.663c.445.443.667.991.667 1.645s-.224 1.2-.672 1.64c-.449.438-1.004.657-1.667.657Z"/>
</svg>
