<svg xmlns="http://www.w3.org/2000/svg" width="58" height="50" fill="none" viewBox="0 0 58 50">
  <path fill="#fff" d="M52.849 12.973c-1.452 1.426-3.086 2.493-4.905 3.2a15.41 15.41 0 0 1-5.636 1.062c-1.94 0-3.83-.355-5.67-1.064-1.84-.71-3.495-1.775-4.967-3.197L24.516 5.87a12.273 12.273 0 0 0-4.095-2.746 12.488 12.488 0 0 0-4.781-.947c-1.649 0-3.241.316-4.778.947A12.254 12.254 0 0 0 6.773 5.87l-5.247 5.114L0 9.47l5.151-5.21c1.469-1.452 3.104-2.525 4.905-3.22A15.384 15.384 0 0 1 15.633 0c1.916 0 3.762.347 5.539 1.042 1.776.694 3.4 1.767 4.87 3.22l7.155 7.102c1.289 1.269 2.708 2.217 4.258 2.845a12.68 12.68 0 0 0 4.805.943c1.653 0 3.237-.317 4.75-.95 1.513-.631 2.918-1.578 4.217-2.838l5.247-5.114L58 7.765l-5.151 5.208Zm0 16.383c-1.493 1.452-3.154 2.525-4.983 3.22a15.68 15.68 0 0 1-5.606 1.041 15.68 15.68 0 0 1-5.606-1.041c-1.83-.695-3.49-1.768-4.983-3.22l-7.155-7.102a12.273 12.273 0 0 0-4.095-2.746 12.488 12.488 0 0 0-4.781-.947c-1.649 0-3.241.315-4.778.947a12.254 12.254 0 0 0-4.089 2.746l-5.247 5.113L0 25.947l5.151-5.303c1.469-1.452 3.104-2.525 4.905-3.22a15.385 15.385 0 0 1 5.577-1.041c1.916 0 3.762.347 5.539 1.041 1.776.695 3.4 1.768 4.87 3.22l7.155 7.102c1.251 1.27 2.645 2.218 4.181 2.846 1.538.628 3.149.942 4.834.942 1.685 0 3.285-.316 4.798-.949 1.513-.632 2.918-1.578 4.217-2.839l5.247-5.113L58 24.148l-5.151 5.208Zm-.096 16.383c-1.49 1.452-3.135 2.525-4.934 3.22A15.307 15.307 0 0 1 42.26 50a15.1 15.1 0 0 1-5.608-1.089c-1.831-.726-3.491-1.815-4.98-3.267l-7.25-7.008a12.274 12.274 0 0 0-4.095-2.746 12.486 12.486 0 0 0-4.781-.947 12.46 12.46 0 0 0-4.779.947 12.254 12.254 0 0 0-4.088 2.746L1.43 43.75 0 42.33l5.151-5.303c1.403-1.453 3.01-2.526 4.824-3.22a15.462 15.462 0 0 1 5.574-1.042c1.875 0 3.722.347 5.543 1.042 1.82.694 3.47 1.767 4.95 3.22l7.155 7.102c1.299 1.26 2.705 2.207 4.218 2.839 1.513.632 3.096.949 4.75.949 1.653 0 3.255-.314 4.804-.943 1.55-.628 2.97-1.576 4.258-2.845l5.247-5.114 1.43 1.515-5.15 5.209Z"/>
</svg>
