<svg xmlns="http://www.w3.org/2000/svg" width="51" height="50" fill="none" viewBox="0 0 51 50">
  <path fill="#fff" d="M0 50V33.333h1.947V50H0Zm14.865-25.71h34.33L42.56 1.95H21.59l-6.725 22.34Zm-5.84 18.352v-1.95h15.927c1.71 0 3.156-.592 4.335-1.774 1.18-1.182 1.77-2.63 1.77-4.343V26.24H15.396c-.826 0-1.46-.34-1.903-1.02-.442-.679-.545-1.373-.31-2.083l6.378-21.49c.114-.507.392-.91.834-1.205.442-.295.93-.443 1.46-.443h20.35c.532 0 1.018.148 1.46.443.443.296.72.698.834 1.206l6.378 21.49c.236.709.133 1.403-.31 2.083-.442.68-1.076 1.02-1.902 1.02H33.004v8.322c0 2.253-.78 4.162-2.338 5.729-1.558 1.566-3.463 2.349-5.714 2.349H9.025Z"/>
</svg>
