<svg xmlns="http://www.w3.org/2000/svg" width="56" height="50" fill="none" viewBox="0 0 56 50">
  <path fill="#fff" d="M28 50c-2.788 0-5.136-.958-7.046-2.874-1.909-1.916-2.863-4.273-2.863-7.071H2c-.504 0-.964-.208-1.378-.624C.207 39.015 0 38.554 0 38.047c0-7.542 2.59-14.142 7.773-19.799C12.954 12.591 19.363 9.672 27 9.49V0h2v9.49c7.636.182 14.045 3.101 19.227 8.758C53.41 23.905 56 30.505 56 38.048c0 .505-.207.967-.622 1.383-.414.416-.873.624-1.378.624H37.91c0 2.798-.955 5.155-2.864 7.07C33.136 49.043 30.787 50 28 50ZM2 38.047h52c0-7.36-2.526-13.625-7.578-18.795-5.052-5.17-11.189-7.756-18.41-7.756-7.22 0-13.36 2.585-18.421 7.756C4.53 24.422 2 30.687 2 38.047Zm26.023 9.946c2.166 0 4.022-.781 5.568-2.343 1.545-1.561 2.318-3.427 2.318-5.595H20.091c0 2.19.78 4.06 2.34 5.611 1.561 1.551 3.425 2.327 5.592 2.327Z"/>
</svg>
