<svg xmlns="http://www.w3.org/2000/svg" width="31" height="50" fill="none" viewBox="0 0 31 50">
  <path fill="#fff" d="M12.45 48.214h6.1v-7.143l10.636-10.795V17.614c0-.65-.275-1.245-.824-1.786-.55-.541-1.155-.812-1.814-.812H4.452c-.66 0-1.264.27-1.814.812-.55.541-.824 1.136-.824 1.786v12.662L12.45 41.037v7.177ZM10.636 50v-8.198L0 31.006V17.614c0-1.177.443-2.202 1.33-3.075.886-.872 1.927-1.309 3.122-1.309h5.112l-.907.893V0h1.814v13.23h10.058V0h1.814v14.123l-.907-.893h5.112c1.195 0 2.236.437 3.123 1.309.886.873 1.329 1.898 1.329 3.075v13.392L20.364 41.802V50h-9.728Z"/>
</svg>
