<svg xmlns="http://www.w3.org/2000/svg" width="50" height="50" fill="none" viewBox="0 0 50 50">
  <path fill="#fff" d="M25.012 50c-3.456 0-6.706-.656-9.75-1.968-3.045-1.313-5.692-3.094-7.944-5.344-2.252-2.25-4.034-4.896-5.347-7.938C.657 31.708 0 28.458 0 25c0-3.448.647-6.681 1.94-9.698a25.218 25.218 0 0 1 5.388-7.974l1.436 1.436a23.384 23.384 0 0 0-4.957 7.305C2.61 18.832 2.011 21.809 2.011 25c0 6.418 2.228 11.853 6.682 16.307 4.454 4.454 9.89 6.681 16.307 6.681 6.418 0 11.853-2.227 16.307-6.68 4.454-4.455 6.681-9.89 6.681-16.308 0-3.209-.598-6.19-1.795-8.944a23.427 23.427 0 0 0-4.957-7.292l1.436-1.436a25.218 25.218 0 0 1 5.388 7.974c1.293 3.017 1.94 6.26 1.94 9.729 0 3.428-.656 6.663-1.968 9.708-1.311 3.044-3.092 5.691-5.34 7.943-2.25 2.252-4.894 4.034-7.934 5.347C31.718 49.343 28.469 50 25.012 50Zm-1.018-22.126V0h2.012v27.874h-2.012Z"/>
</svg>
