<svg xmlns="http://www.w3.org/2000/svg" width="50" height="50" fill="none" viewBox="0 0 50 50">
  <path fill="#fff" d="m47.578 50-6.339-6.339a25.402 25.402 0 0 1-7.336 4.345c-2.706 1.044-5.603 1.567-8.69 1.567-3.428 0-6.65-.65-9.666-1.952-3.016-1.301-5.639-3.068-7.87-5.298-2.23-2.231-3.997-4.854-5.298-7.87C1.078 31.437.427 28.215.427 24.786c0-3.086.523-5.983 1.567-8.69A25.402 25.402 0 0 1 6.34 8.762L0 2.42 1.425.998l47.578 47.578L47.578 50Zm-22.364-2.422c2.801 0 5.437-.475 7.906-1.424a23.63 23.63 0 0 0 6.695-3.918L7.764 10.187a23.63 23.63 0 0 0-3.918 6.694c-.95 2.47-1.424 5.105-1.424 7.906 0 6.316 2.22 11.693 6.66 16.133 4.439 4.44 9.816 6.66 16.132 6.66Zm21.082-9.686-1.495-1.496a21.707 21.707 0 0 0 2.386-5.484c.546-1.947.819-3.989.819-6.126 0-6.315-2.22-11.693-6.66-16.132-4.44-4.44-9.817-6.66-16.132-6.66-2.137 0-4.179.273-6.126.82a21.709 21.709 0 0 0-5.484 2.385l-1.496-1.495a24.892 24.892 0 0 1 6.188-2.75C20.486.318 22.792 0 25.214 0c3.428 0 6.65.65 9.666 1.952 3.016 1.301 5.64 3.067 7.87 5.298 2.23 2.23 3.997 4.854 5.298 7.87C49.349 18.135 50 21.358 50 24.786c0 2.422-.318 4.728-.954 6.918a24.891 24.891 0 0 1-2.75 6.188Z"/>
</svg>
