<?xml version="1.0" encoding="UTF-8"?>
<!--Generator: Apple Native CoreSVG 341-->
<!DOCTYPE svg
PUBLIC "-//W3C//DTD SVG 1.1//EN"
       "http://www.w3.org/Graphics/SVG/1.1/DTD/svg11.dtd">
<svg version="1.1" xmlns="http://www.w3.org/2000/svg" xmlns:xlink="http://www.w3.org/1999/xlink" viewBox="0 0 27.7234 27.5742">
 <g>
  <rect height="27.5742" opacity="0" width="27.7234" x="0" y="0"/>
  <path d="M22.4852 2.50603C20.6292 3.23708 19.23 4.60547 17.266 4.60547C16.6332 4.60547 16.1058 4.46484 15.4261 4.07812C15.0277 3.85547 14.6293 4.00781 14.4418 4.3125C14.2308 4.64062 14.2543 5.15625 14.7465 5.4375C15.5199 5.91797 16.3754 6.11719 17.266 6.11719C19.4839 6.11719 20.9482 4.83939 22.5863 4.09824L22.5863 5.72708C20.6885 6.45297 19.2753 7.875 17.2777 7.875C16.6332 7.875 16.1058 7.72266 15.4379 7.34766C15.0394 7.11328 14.6293 7.27734 14.4418 7.58203C14.2308 7.91016 14.2543 8.42578 14.7582 8.70703C15.5316 9.17578 16.3871 9.38672 17.2777 9.38672C19.4849 9.38672 20.9518 8.10585 22.5863 7.36087L22.5863 8.99188C20.6803 9.7138 19.266 11.1328 17.266 11.1328C16.6332 11.1328 16.1058 10.9922 15.4261 10.6055C15.0277 10.3828 14.6293 10.5352 14.4418 10.8398C14.2308 11.168 14.2543 11.6836 14.7465 11.9648C15.5199 12.4453 16.3754 12.6445 17.266 12.6445C19.4839 12.6445 20.9482 11.3667 22.5863 10.6256L22.5863 21.9141C22.5863 23.8514 21.7618 25.0198 20.1371 25.3716L20.1371 26.6016C20.1371 27.1641 19.7621 27.5508 19.1879 27.5508C18.6254 27.5508 18.2504 27.1641 18.2504 26.6016L18.2504 25.4883L9.12146 25.4883L9.12146 26.6016C9.12146 27.1641 8.74646 27.5508 8.18396 27.5508C7.62146 27.5508 7.23474 27.1641 7.23474 26.6016L7.23474 25.3696C5.61436 25.0148 4.78552 23.8473 4.78552 21.9141L4.78552 3.5625C4.78552 1.19531 6.03943 0 8.40661 0L18.9769 0C20.96 0 22.1535 0.83883 22.4852 2.50603ZM8.5238 20.8125C8.10193 20.8125 7.76208 21.1523 7.76208 21.5859C7.76208 22.0078 8.10193 22.3477 8.5238 22.3477L12.0394 22.3477C12.473 22.3477 12.8129 22.0078 12.8129 21.5859C12.8129 21.1523 12.473 20.8125 12.0394 20.8125ZM15.3324 20.8125C14.8988 20.8125 14.559 21.1523 14.559 21.5859C14.559 22.0078 14.8988 22.3477 15.3324 22.3477L18.848 22.3477C19.2699 22.3477 19.6097 22.0078 19.6097 21.5859C19.6097 21.1523 19.2699 20.8125 18.848 20.8125ZM8.5238 17.8008C8.10193 17.8008 7.76208 18.1289 7.76208 18.5625C7.76208 18.9961 8.10193 19.3242 8.5238 19.3242L12.0394 19.3242C12.473 19.3242 12.8129 18.9961 12.8129 18.5625C12.8129 18.1289 12.473 17.8008 12.0394 17.8008ZM15.3324 17.8008C14.8988 17.8008 14.559 18.1289 14.559 18.5625C14.559 18.9961 14.8988 19.3242 15.3324 19.3242L18.848 19.3242C19.2699 19.3242 19.6097 18.9961 19.6097 18.5625C19.6097 18.1289 19.2699 17.8008 18.848 17.8008ZM8.5238 14.7773C8.10193 14.7773 7.76208 15.1172 7.76208 15.5391C7.76208 15.9727 8.10193 16.3008 8.5238 16.3008L12.0394 16.3008C12.473 16.3008 12.8129 15.9727 12.8129 15.5391C12.8129 15.1172 12.473 14.7773 12.0394 14.7773ZM15.3324 14.7773C14.8988 14.7773 14.559 15.1172 14.559 15.5391C14.559 15.9727 14.8988 16.3008 15.3324 16.3008L18.848 16.3008C19.2699 16.3008 19.6097 15.9727 19.6097 15.5391C19.6097 15.1172 19.2699 14.7773 18.848 14.7773ZM7.83239 4.76953C7.83239 5.71875 8.59411 6.49219 9.53161 6.49219C10.4691 6.49219 11.2426 5.71875 11.2426 4.76953C11.2426 3.84375 10.4691 3.08203 9.53161 3.08203C8.59411 3.08203 7.83239 3.84375 7.83239 4.76953Z" fill="white" fill-opacity="0.25"/>
  <path d="M17.266 6.11719C16.3754 6.11719 15.5199 5.91797 14.7465 5.4375C14.2543 5.15625 14.2308 4.64062 14.4418 4.3125C14.6293 4.00781 15.0277 3.85547 15.4261 4.07812C16.1058 4.46484 16.6332 4.60547 17.266 4.60547C19.9496 4.60547 21.5785 2.05078 24.7543 2.05078C25.6449 2.05078 26.4886 2.27344 27.2738 2.73047C27.7894 3.02344 27.8011 3.53906 27.5785 3.87891C27.391 4.14844 27.016 4.3125 26.5941 4.07812C25.9144 3.70312 25.3871 3.57422 24.7543 3.57422C22.0238 3.57422 20.3949 6.11719 17.266 6.11719ZM17.2777 9.38672C16.3871 9.38672 15.5316 9.17578 14.7582 8.70703C14.2543 8.42578 14.2308 7.91016 14.4418 7.58203C14.6293 7.27734 15.0394 7.11328 15.4379 7.34766C16.1058 7.72266 16.6332 7.875 17.2777 7.875C19.9613 7.875 21.5902 5.30859 24.7543 5.30859C25.6449 5.30859 26.5004 5.53125 27.2972 5.98828C27.8011 6.28125 27.8011 6.80859 27.5902 7.13672C27.4027 7.41797 27.016 7.58203 26.6058 7.34766C25.9261 6.96094 25.3988 6.83203 24.7543 6.83203C22.0355 6.83203 20.3949 9.38672 17.2777 9.38672ZM17.266 12.6445C16.3754 12.6445 15.5199 12.4453 14.7465 11.9648C14.2543 11.6836 14.2308 11.168 14.4418 10.8398C14.6293 10.5352 15.0277 10.3828 15.4261 10.6055C16.1058 10.9922 16.6332 11.1328 17.266 11.1328C19.9496 11.1328 21.5785 8.57812 24.7543 8.57812C25.6449 8.57812 26.4886 8.80078 27.2738 9.25781C27.7894 9.55078 27.8011 10.0664 27.5785 10.4062C27.391 10.6758 27.016 10.8398 26.5941 10.6055C25.9144 10.2305 25.3871 10.1016 24.7543 10.1016C22.0238 10.1016 20.3949 12.6445 17.266 12.6445Z" fill="white"/>
 </g>
</svg>
