<?xml version="1.0" encoding="UTF-8"?>
<svg id="Layer_1" data-name="Layer 1" xmlns="http://www.w3.org/2000/svg" viewBox="0 0 48.96 37.66">
  <defs>
    <style>
      .cls-1 {
        fill: #fff;
      }
    </style>
  </defs>
  <path class="cls-1" d="M29.45,9.22v11.77c4.97,2.39,8.89,0,8.89-6.32s-2.29-9.35-9.05-11.66c-2.66-.89-8.21-2.37-11.69-3v35.13l8.68,2.52V8.19c0-1.38.62-2.3,1.62-1.98,1.3.36,1.56,1.63,1.56,3.01h0ZM45.29,24.69c-3.34-1.26-7.59-1.69-11.07-1.31-3.47.38-5.94,1.25-5.94,1.25l-.49.17v4.78l8.55-3c1.46-.52,3.6-.63,4.78-.25,1.18.39.96,1.12-.5,1.64l-12.83,4.56v4.6l17.44-6.24s2.34-.86,3.3-2.06c.96-1.2.53-2.95-3.23-4.13h0ZM.92,27.39c-1.76,1.3-1.07,3.39,2.75,4.64,4.14,1.36,8.12,2.19,11.9,1.52.25-.04.51-.09.75-.14v-4.28l-3.52,1.04c-1.46.52-3.6.63-4.78.25-1.18-.39-.96-1.12.5-1.64l7.8-2.65v-4.78l-11.01,3.93s-2.77.9-4.4,2.11h0Z"/>
</svg>