<?xml version="1.0" encoding="UTF-8"?>
<!--Generator: Apple Native CoreSVG 341-->
<!DOCTYPE svg
PUBLIC "-//W3C//DTD SVG 1.1//EN"
       "http://www.w3.org/Graphics/SVG/1.1/DTD/svg11.dtd">
<svg version="1.1" xmlns="http://www.w3.org/2000/svg" xmlns:xlink="http://www.w3.org/1999/xlink" viewBox="2 0 24.9414 24.6">
 <g>
  <rect height="26.2383" opacity="0" width="26.9414" x="0" y="0"/>
  <path d="M22.4297 13.6289C22.6523 13.6289 22.8047 13.4766 22.8281 13.2422C23.2148 10.1133 23.3672 10.0312 26.543 9.51562C26.7891 9.48047 26.9414 9.35156 26.9414 9.12891C26.9414 8.90625 26.7891 8.76562 26.5898 8.73047C23.3906 8.12109 23.2148 8.13281 22.8281 5.00391C22.8047 4.76953 22.6523 4.61719 22.4297 4.61719C22.2188 4.61719 22.0664 4.76953 22.0312 4.99219C21.6328 8.16797 21.5156 8.27344 18.2695 8.73047C18.0703 8.75391 17.918 8.90625 17.918 9.12891C17.918 9.33984 18.0703 9.48047 18.2695 9.51562C21.5156 10.1367 21.6211 10.1367 22.0312 13.2656C22.0664 13.4766 22.2188 13.6289 22.4297 13.6289ZM16.8281 5.69531C16.9688 5.69531 17.0391 5.61328 17.0625 5.48438C17.4258 3.52734 17.4141 3.48047 19.4531 3.09375C19.582 3.07031 19.6758 2.98828 19.6758 2.84766C19.6758 2.70703 19.582 2.625 19.4531 2.60156C17.4141 2.19141 17.4844 2.14453 17.0625 0.210938C17.0391 0.0820312 16.9688 0 16.8281 0C16.6875 0 16.6055 0.0820312 16.582 0.210938C16.1719 2.14453 16.2422 2.19141 14.2031 2.60156C14.0625 2.625 13.9805 2.70703 13.9805 2.84766C13.9805 2.98828 14.0625 3.07031 14.2031 3.09375C16.2422 3.50391 16.2188 3.52734 16.582 5.48438C16.6055 5.61328 16.6875 5.69531 16.8281 5.69531Z" fill="white" fill-opacity="0.425"/>
  <path d="M13.6055 24.4102C17.8125 24.4102 21.2227 21.8672 22.7227 18.6445C23.0508 17.9531 22.6289 17.5078 21.9844 17.707C21.2695 17.9531 20.0859 18.1758 18.9961 18.1758C13.207 18.1758 9.89062 14.8594 9.89062 9.05859C9.89062 7.98047 10.1367 6.73828 10.4766 5.88281C10.7695 5.14453 10.2656 4.72266 9.57422 5.02734C6.11719 6.52734 3.49219 10.0781 3.49219 14.2969C3.49219 19.8867 8.01562 24.4102 13.6055 24.4102ZM13.6055 22.7227C8.95312 22.7227 5.16797 18.9492 5.16797 14.2969C5.16797 11.5547 6.51562 9.23438 8.34375 7.76953C8.26172 8.20312 8.21484 8.61328 8.21484 9.05859C8.21484 15.7852 12.2695 19.8633 18.9961 19.8633C19.3477 19.8633 19.6875 19.8164 19.9688 19.7578C18.4922 21.5273 16.2305 22.7227 13.6055 22.7227Z" fill="white" fill-opacity="0.85"/>
 </g>
</svg>
