<?xml version="1.0" encoding="UTF-8"?>
<!--Generator: Apple Native CoreSVG 341-->
<!DOCTYPE svg
PUBLIC "-//W3C//DTD SVG 1.1//EN"
       "http://www.w3.org/Graphics/SVG/1.1/DTD/svg11.dtd">
<svg version="1.1" xmlns="http://www.w3.org/2000/svg" xmlns:xlink="http://www.w3.org/1999/xlink" viewBox="0 -2.3926 28.2656 23.5">
 <g>
  <rect height="18.7148" opacity="0" width="28.2656" x="0" y="0"/>
  <path d="M6 18.5508L21.2578 18.5508C25.207 18.5508 28.2656 15.5625 28.2656 11.7422C28.2656 7.88672 25.1367 4.98047 20.8828 4.98047C19.3242 1.88672 16.4648 0 12.9844 0C8.4375 0 4.59375 3.52734 4.18359 8.20312C1.83984 8.87109 0.257812 10.8398 0.257812 13.3359C0.257812 16.2188 2.35547 18.5508 6 18.5508ZM5.97656 16.6641C3.57422 16.6641 2.14453 15.3633 2.14453 13.3945C2.14453 11.707 3.22266 10.4883 5.12109 9.98438C5.77734 9.82031 6.02344 9.51562 6.07031 8.83594C6.35156 4.86328 9.32812 1.88672 12.9844 1.88672C15.8086 1.88672 17.9883 3.45703 19.3008 6.15234C19.582 6.72656 19.9219 6.92578 20.6367 6.92578C24.3047 6.92578 26.3672 9.14062 26.3672 11.7891C26.3672 14.5195 24.1875 16.6641 21.3867 16.6641Z" fill="white" fill-opacity="0.85"/>
 </g>
</svg>
