<?xml version="1.0" encoding="UTF-8"?>
<!--Generator: Apple Native CoreSVG 341-->
<!DOCTYPE svg
PUBLIC "-//W3C//DTD SVG 1.1//EN"
       "http://www.w3.org/Graphics/SVG/1.1/DTD/svg11.dtd">
<svg version="1.1" xmlns="http://www.w3.org/2000/svg" xmlns:xlink="http://www.w3.org/1999/xlink" viewBox="-0.9105 0 29.4186 29.4186">
 <g>
  <rect height="29.4186" opacity="0" width="27.5977" x="0" y="0"/>
  <path d="M22.4648 28.0745C22.8164 28.262 23.2383 28.1448 23.4375 27.805L24.9609 25.1565C25.1719 24.805 25.0547 24.3948 24.7148 24.1839C24.3516 23.9729 23.9531 24.0901 23.7422 24.4534L22.207 27.1136C22.0078 27.4534 22.1016 27.8636 22.4648 28.0745Z" fill="white" fill-opacity="0.425"/>
  <path d="M20.1914 24.7933C20.543 24.9925 20.9648 24.8753 21.1641 24.5237L22.6875 21.887C22.8984 21.5237 22.7812 21.1136 22.4414 20.9026C22.0781 20.7034 21.6797 20.8206 21.4688 21.1722L19.9336 23.844C19.7344 24.1839 19.8281 24.594 20.1914 24.7933Z" fill="white" fill-opacity="0.425"/>
  <path d="M17.0391 23.387L14.3789 23.387L14.3555 23.9144L15.7852 21.1722C15.9258 20.9144 15.8203 20.7151 15.5625 20.7151L13.0195 20.7151C12.6797 20.7151 12.5625 20.8323 12.457 21.0784L10.8633 24.7112C10.7344 25.0042 10.8633 25.18 11.168 25.18L13.3359 25.18L13.4883 24.4886L11.6016 29.0706C11.543 29.2229 11.5781 29.3519 11.6836 29.3987C11.7891 29.4456 11.918 29.4104 12.0469 29.2815L17.2266 23.9729C17.4727 23.7151 17.3789 23.387 17.0391 23.387Z" fill="white" fill-opacity="0.85"/>
  <path d="M6.17578 28.0745C6.52734 28.262 6.94922 28.1448 7.14844 27.805L8.67188 25.1565C8.88281 24.805 8.76562 24.3948 8.41406 24.1839C8.0625 23.9729 7.66406 24.0901 7.45312 24.4534L5.90625 27.1136C5.71875 27.4534 5.8125 27.8636 6.17578 28.0745Z" fill="white" fill-opacity="0.425"/>
  <path d="M3.90234 24.7933C4.25391 24.9925 4.67578 24.8753 4.875 24.5237L6.39844 21.887C6.60938 21.5237 6.49219 21.1136 6.14062 20.9026C5.78906 20.7034 5.39062 20.8206 5.17969 21.1722L3.64453 23.844C3.44531 24.1839 3.53906 24.594 3.90234 24.7933Z" fill="white" fill-opacity="0.425"/>
  <path d="M6.35156 19.0394L20.8945 19.0394C24.7383 19.0394 27.5977 16.1214 27.5977 12.512C27.5977 8.77373 24.5508 6.04326 20.5781 6.04326C19.1133 3.14873 16.3945 1.28545 13.0078 1.28545C8.60156 1.28545 4.96875 4.74248 4.58203 9.09014C2.46094 9.71123 0.84375 11.5511 0.84375 14.0237C0.84375 16.8011 2.85938 19.0394 6.35156 19.0394Z" fill="white" fill-opacity="0.85"/>
 </g>
</svg>
