<?xml version="1.0" encoding="UTF-8"?>
<!--Generator: Apple Native CoreSVG 341-->
<!DOCTYPE svg
PUBLIC "-//W3C//DTD SVG 1.1//EN"
       "http://www.w3.org/Graphics/SVG/1.1/DTD/svg11.dtd">
<svg version="1.1" xmlns="http://www.w3.org/2000/svg" xmlns:xlink="http://www.w3.org/1999/xlink" viewBox="0 -1.407 35.9297 28.138">
 <g>
  <rect height="25.3242" opacity="0" width="35.9297" x="0" y="0"/>
  <path d="M30.5859 17.9414L32.4023 19.7461C32.7773 20.1211 32.7773 20.7422 32.4023 21.1055C32.0273 21.4805 31.4062 21.5039 31.043 21.1172L29.2148 19.3125C28.8398 18.9375 28.8398 18.3164 29.2148 17.9414C29.5898 17.5781 30.2109 17.5781 30.5859 17.9414ZM29.5898 12.5156C29.5898 14.6045 28.4625 16.4518 26.7912 17.4715C26.4631 14.0621 23.7254 11.4954 20.1328 11.1328C19.7581 10.5412 19.3289 10.0016 18.8497 9.52413C19.8672 7.84026 21.7152 6.70312 23.8008 6.70312C26.9648 6.70312 29.5898 9.33984 29.5898 12.5156ZM35.9297 12.5156C35.9297 13.0547 35.4961 13.4883 34.9688 13.4883L32.4258 13.4883C31.9102 13.4883 31.4531 13.0547 31.4531 12.5156C31.4531 12 31.9102 11.543 32.4258 11.543L34.9688 11.543C35.4961 11.543 35.9297 12 35.9297 12.5156ZM32.4023 3.92578C32.7773 4.30078 32.7773 4.93359 32.4023 5.30859L30.5977 7.10156C30.2109 7.48828 29.5898 7.47656 29.2148 7.10156C28.8398 6.72656 28.8398 6.10547 29.2148 5.74219L31.043 3.92578C31.4062 3.55078 32.0273 3.55078 32.4023 3.92578ZM16.582 3.92578L18.3867 5.74219C18.75 6.09375 18.75 6.73828 18.375 7.10156C18 7.47656 17.3789 7.47656 17.0039 7.10156L15.2109 5.29688C14.8359 4.93359 14.8477 4.30078 15.2227 3.92578C15.5977 3.55078 16.2188 3.5625 16.582 3.92578ZM24.7734 1.32422L24.7734 3.87891C24.7734 4.39453 24.3281 4.83984 23.8008 4.83984C23.2734 4.83984 22.8281 4.39453 22.8281 3.87891L22.8281 1.32422C22.8281 0.808594 23.2734 0.351562 23.8008 0.351562C24.3281 0.351562 24.7734 0.808594 24.7734 1.32422Z" fill="white" fill-opacity="0.425"/>
  <path d="M6.85547 23.9531L19.5352 23.9531C22.875 23.9531 25.4648 21.4219 25.4648 18.1641C25.4648 14.9297 22.8281 12.4805 19.3242 12.457C17.9766 9.89062 15.5508 8.32031 12.6562 8.32031C8.83594 8.32031 5.60156 11.2852 5.23828 15.1406C3.29297 15.7266 1.96875 17.3906 1.96875 19.5C1.96875 22.1016 3.92578 23.9531 6.85547 23.9531Z" fill="white" fill-opacity="0.85"/>
 </g>
</svg>
