<?xml version="1.0" encoding="UTF-8"?>
<!--Generator: Apple Native CoreSVG 341-->
<!DOCTYPE svg
PUBLIC "-//W3C//DTD SVG 1.1//EN"
       "http://www.w3.org/Graphics/SVG/1.1/DTD/svg11.dtd">
<svg version="1.1" xmlns="http://www.w3.org/2000/svg" xmlns:xlink="http://www.w3.org/1999/xlink" viewBox="0 -1.377 35.9297 27.539">
 <g>
  <rect height="24.7852" opacity="0" width="35.9297" x="0" y="0"/>
  <path d="M30.5977 17.5898L32.4023 19.3945C32.7773 19.7812 32.7773 20.4023 32.4023 20.7656C32.0273 21.1406 31.4062 21.1641 31.0312 20.7773L29.2148 18.9727C28.8398 18.5977 28.8398 17.9648 29.2148 17.5898C29.5898 17.2266 30.2109 17.2266 30.5977 17.5898ZM29.5898 12.1641C29.5898 14.7438 27.8782 16.955 25.5413 17.7033C25.5348 17.0965 25.4328 16.5197 25.2482 15.9833C26.782 15.4013 27.8672 13.9122 27.8672 12.1641C27.8672 9.91406 26.0508 8.08594 23.8008 8.08594C21.5953 8.08594 19.7952 9.84237 19.7293 12.0321C19.6128 12.0178 19.4924 12.0133 19.3711 12.0117C19.0588 11.4272 18.6906 10.8938 18.2715 10.4215C19.0182 8.07322 21.2289 6.35156 23.8008 6.35156C26.9766 6.35156 29.5898 8.97656 29.5898 12.1641ZM35.9297 12.1641C35.9297 12.7031 35.4961 13.1484 34.9688 13.1484L32.4258 13.1484C31.9102 13.1484 31.4531 12.7031 31.4531 12.1641C31.4531 11.6484 31.9102 11.1914 32.4258 11.1914L34.9688 11.1914C35.4961 11.1914 35.9297 11.6484 35.9297 12.1641ZM32.4023 3.5625C32.7773 3.94922 32.7773 4.58203 32.4023 4.95703L30.6094 6.76172C30.2109 7.14844 29.5898 7.125 29.2148 6.76172C28.8398 6.375 28.8398 5.75391 29.2148 5.39062L31.0312 3.5625C31.4062 3.1875 32.0273 3.19922 32.4023 3.5625ZM16.5703 3.5625L18.3867 5.39062C18.75 5.74219 18.75 6.38672 18.375 6.76172C18 7.125 17.3672 7.13672 16.9922 6.76172L15.1992 4.94531C14.8242 4.58203 14.8359 3.94922 15.2109 3.5625C15.5859 3.19922 16.207 3.19922 16.5703 3.5625ZM24.7852 0.972656L24.7852 3.52734C24.7852 4.04297 24.3281 4.48828 23.8008 4.48828C23.2734 4.48828 22.8281 4.04297 22.8281 3.52734L22.8281 0.972656C22.8281 0.457031 23.2734 0 23.8008 0C24.3281 0 24.7852 0.457031 24.7852 0.972656Z" fill="white" fill-opacity="0.425"/>
  <path d="M6.84375 23.6836L19.5234 23.6836C22.9219 23.6836 25.5469 21.1289 25.5469 17.8125C25.5469 14.5312 22.8867 12.0586 19.3711 12.0117C18 9.44531 15.5508 7.86328 12.6562 7.86328C8.77734 7.86328 5.53125 10.8633 5.14453 14.7188C3.1875 15.3281 1.875 17.0156 1.875 19.1484C1.875 21.7969 3.85547 23.6836 6.84375 23.6836ZM6.79688 21.7969C4.80469 21.7969 3.76172 20.6602 3.76172 19.1953C3.76172 17.9648 4.47656 16.8633 6.19922 16.4062C6.77344 16.2539 6.97266 15.9961 7.01953 15.3984C7.30078 12.1172 9.73828 9.75 12.6562 9.75C14.9297 9.75 16.6875 11.0039 17.7891 13.1953C18.0352 13.6992 18.3281 13.8633 18.9258 13.8633C21.9492 13.8633 23.6602 15.6914 23.6602 17.8711C23.6602 20.0508 21.8789 21.7969 19.5586 21.7969Z" fill="white" fill-opacity="0.85"/>
 </g>
</svg>
