<?xml version="1.0" encoding="UTF-8"?>
<!--Generator: Apple Native CoreSVG 341-->
<!DOCTYPE svg
PUBLIC "-//W3C//DTD SVG 1.1//EN"
       "http://www.w3.org/Graphics/SVG/1.1/DTD/svg11.dtd">
<svg version="1.1" xmlns="http://www.w3.org/2000/svg" xmlns:xlink="http://www.w3.org/1999/xlink" viewBox="-0.7852 0 29.168 29.168">
 <g>
  <rect height="29.168" opacity="0" width="27.5977" x="0" y="0"/>
  <path d="M17.4609 29.168C17.6719 29.168 17.8242 28.957 17.8125 28.7461L17.7305 27.6328L18.668 28.2656C18.832 28.3711 19.1016 28.3242 19.2188 28.1484C19.3242 27.9727 19.2656 27.7031 19.0312 27.5977L18.0234 27.1172L19.043 26.6133C19.2656 26.5078 19.3125 26.25 19.2305 26.0742C19.125 25.8867 18.832 25.8516 18.668 25.957L17.7305 26.6133L17.8242 25.4766C17.8477 25.2539 17.6719 25.0664 17.4609 25.0664C17.2148 25.0664 17.0742 25.2539 17.0859 25.4766L17.1562 26.6133L16.207 25.957C16.043 25.8516 15.7969 25.875 15.6797 26.0742C15.5742 26.25 15.6211 26.4961 15.8438 26.6133L16.8516 27.1172L15.8438 27.6094C15.6211 27.7148 15.5625 27.9609 15.668 28.1484C15.7734 28.3477 16.043 28.3828 16.207 28.2656L17.1562 27.6328L17.0977 28.7461C17.0859 28.957 17.2148 29.168 17.4609 29.168Z" fill="white" fill-opacity="0.425"/>
  <path d="M10.9688 29.168C11.1797 29.168 11.332 28.957 11.3203 28.7461L11.25 27.6328L12.1758 28.2656C12.3398 28.3711 12.6094 28.3242 12.7266 28.1484C12.832 27.9727 12.7734 27.7031 12.5391 27.5977L11.5312 27.1172L12.5508 26.6133C12.7734 26.5078 12.8203 26.25 12.7383 26.0742C12.6328 25.8867 12.3398 25.8516 12.1758 25.957L11.25 26.6133L11.332 25.4766C11.3555 25.2539 11.1797 25.0664 10.9688 25.0664C10.7227 25.0664 10.582 25.2539 10.5938 25.4766L10.6641 26.6133L9.71484 25.957C9.55078 25.8516 9.30469 25.875 9.1875 26.0742C9.08203 26.25 9.12891 26.4961 9.35156 26.6133L10.3594 27.1172L9.35156 27.6094C9.12891 27.7148 9.07031 27.9609 9.17578 28.1484C9.28125 28.3477 9.55078 28.3828 9.71484 28.2656L10.6641 27.6328L10.6055 28.7461C10.5938 28.957 10.7227 29.168 10.9688 29.168Z" fill="white" fill-opacity="0.425"/>
  <path d="M4.47656 29.168C4.6875 29.168 4.83984 28.957 4.82812 28.7461L4.75781 27.6328L5.68359 28.2656C5.85938 28.3711 6.11719 28.3242 6.23438 28.1484C6.33984 27.9727 6.28125 27.7031 6.04688 27.5977L5.05078 27.1172L6.05859 26.6133C6.28125 26.5078 6.32812 26.25 6.24609 26.0742C6.14062 25.8867 5.85938 25.8516 5.68359 25.957L4.75781 26.6133L4.83984 25.4766C4.86328 25.2539 4.6875 25.0664 4.47656 25.0664C4.23047 25.0664 4.08984 25.2539 4.10156 25.4766L4.17188 26.6133L3.23438 25.957C3.05859 25.8516 2.8125 25.875 2.69531 26.0742C2.58984 26.25 2.63672 26.4961 2.85938 26.6133L3.86719 27.1172L2.85938 27.6094C2.63672 27.7148 2.57812 27.9609 2.68359 28.1484C2.78906 28.3477 3.05859 28.3828 3.23438 28.2656L4.17188 27.6328L4.11328 28.7461C4.10156 28.957 4.23047 29.168 4.47656 29.168Z" fill="white" fill-opacity="0.425"/>
  <path d="M20.0039 24.7617C20.2148 24.7617 20.3672 24.5625 20.3555 24.3516L20.2734 23.2266L21.2109 23.8594C21.375 23.9766 21.6445 23.9297 21.7617 23.7539C21.8672 23.5781 21.8086 23.3086 21.5742 23.2031L20.5664 22.7109L21.5859 22.207C21.8086 22.1016 21.8555 21.8555 21.7734 21.668C21.668 21.4805 21.375 21.4453 21.2109 21.5625L20.2734 22.207L20.3672 21.082C20.3906 20.8594 20.2148 20.6719 20.0039 20.6719C19.7578 20.6719 19.6172 20.8594 19.6289 21.082L19.6992 22.207L18.75 21.5625C18.5859 21.4453 18.3398 21.4688 18.2227 21.668C18.1172 21.8555 18.1641 22.1016 18.3867 22.207L19.3945 22.7109L18.3867 23.2031C18.1641 23.3086 18.1055 23.5664 18.2109 23.7539C18.3164 23.9414 18.5859 23.9766 18.75 23.8711L19.6992 23.2383L19.6406 24.3516C19.6289 24.5625 19.7578 24.7617 20.0039 24.7617Z" fill="white" fill-opacity="0.425"/>
  <path d="M13.5117 24.7617C13.7227 24.7617 13.875 24.5625 13.8633 24.3516L13.793 23.2266L14.7188 23.8594C14.8828 23.9766 15.1523 23.9297 15.2695 23.7539C15.375 23.5781 15.3164 23.3086 15.082 23.2031L14.0742 22.7109L15.0938 22.207C15.3164 22.1016 15.3633 21.8555 15.2812 21.668C15.1758 21.4805 14.8828 21.4453 14.7188 21.5625L13.793 22.207L13.875 21.082C13.8984 20.8594 13.7227 20.6719 13.5117 20.6719C13.2656 20.6719 13.125 20.8594 13.1367 21.082L13.207 22.207L12.2578 21.5625C12.0938 21.4453 11.8477 21.4688 11.7305 21.668C11.625 21.8555 11.6719 22.1016 11.8945 22.207L12.9023 22.7109L11.8945 23.2031C11.6719 23.3086 11.6133 23.5664 11.7188 23.7539C11.8242 23.9414 12.0938 23.9766 12.2578 23.8711L13.207 23.2383L13.1484 24.3516C13.1367 24.5625 13.2656 24.7617 13.5117 24.7617Z" fill="white" fill-opacity="0.425"/>
  <path d="M7.01953 24.7617C7.23047 24.7617 7.38281 24.5625 7.37109 24.3516L7.30078 23.2266L8.22656 23.8594C8.39062 23.9766 8.66016 23.9297 8.77734 23.7539C8.88281 23.5781 8.82422 23.3086 8.58984 23.2031L7.59375 22.7109L8.60156 22.207C8.82422 22.1016 8.87109 21.8555 8.78906 21.668C8.68359 21.4805 8.39062 21.4453 8.22656 21.5625L7.30078 22.207L7.38281 21.082C7.40625 20.8594 7.23047 20.6719 7.01953 20.6719C6.77344 20.6719 6.63281 20.8594 6.64453 21.082L6.71484 22.207L5.77734 21.5625C5.60156 21.4453 5.35547 21.4688 5.23828 21.668C5.13281 21.8555 5.17969 22.1016 5.40234 22.207L6.41016 22.7109L5.40234 23.2031C5.17969 23.3086 5.12109 23.5664 5.22656 23.7539C5.33203 23.9414 5.60156 23.9766 5.77734 23.8711L6.71484 23.2383L6.65625 24.3516C6.64453 24.5625 6.77344 24.7617 7.01953 24.7617Z" fill="white" fill-opacity="0.425"/>
  <path d="M6.35156 18.9141L20.8945 18.9141C24.7383 18.9141 27.5977 15.9961 27.5977 12.3867C27.5977 8.64844 24.5508 5.91797 20.5781 5.91797C19.1133 3.02344 16.3945 1.16016 13.0078 1.16016C8.60156 1.16016 4.96875 4.61719 4.58203 8.96484C2.46094 9.58594 0.84375 11.4258 0.84375 13.8984C0.84375 16.6758 2.85938 18.9141 6.35156 18.9141ZM6.32812 17.0391C3.92578 17.0391 2.71875 15.6914 2.71875 13.957C2.71875 12.5508 3.53906 11.2852 5.53125 10.7578C6.17578 10.582 6.41016 10.2773 6.46875 9.62109C6.73828 5.78906 9.60938 3.03516 13.0078 3.03516C15.6445 3.03516 17.7188 4.48828 18.9844 7.07812C19.2539 7.65234 19.6055 7.85156 20.2969 7.85156C23.7656 7.85156 25.7227 9.9375 25.7227 12.4336C25.7227 14.9883 23.6836 17.0391 21.0117 17.0391Z" fill="white" fill-opacity="0.85"/>
 </g>
</svg>
