<?xml version="1.0" encoding="UTF-8"?>
<!--Generator: Apple Native CoreSVG 341-->
<!DOCTYPE svg
PUBLIC "-//W3C//DTD SVG 1.1//EN"
       "http://www.w3.org/Graphics/SVG/1.1/DTD/svg11.dtd">
<svg version="1.1" xmlns="http://www.w3.org/2000/svg" xmlns:xlink="http://www.w3.org/1999/xlink" viewBox="-1.5703 0 30.7383 30.7383">
 <g>
  <rect height="30.7383" opacity="0" width="27.5977" x="0" y="0"/>
  <path d="M17.9766 28.9922C18.1875 28.9922 18.3398 28.793 18.3281 28.5703L18.2461 27.457L19.1836 28.0898C19.3477 28.207 19.6055 28.1602 19.7227 27.9844C19.8398 27.8086 19.7695 27.5391 19.5469 27.4336L18.5391 26.9414L19.5586 26.4375C19.7695 26.332 19.8281 26.0742 19.7344 25.8984C19.6289 25.7109 19.3477 25.6758 19.1836 25.793L18.2461 26.4375L18.3398 25.3125C18.3633 25.0781 18.1875 24.8906 17.9766 24.8906C17.7305 24.8906 17.5781 25.0781 17.5898 25.3125L17.6719 26.4375L16.7227 25.793C16.5586 25.6758 16.3125 25.6992 16.1953 25.8984C16.0898 26.0742 16.1367 26.332 16.3594 26.4375L17.3672 26.9414L16.3594 27.4336C16.1367 27.5391 16.0781 27.7969 16.1836 27.9844C16.2891 28.1719 16.5586 28.207 16.7227 28.0898L17.6719 27.4688L17.6016 28.5703C17.5898 28.793 17.7305 28.9922 17.9766 28.9922Z" fill="white" fill-opacity="0.85"/>
  <path d="M11.2852 30.7383C11.5078 30.7383 11.6484 30.5391 11.6367 30.3281L11.5664 29.2148L12.4922 29.8359C12.668 29.9531 12.9258 29.9062 13.043 29.7305C13.1602 29.5547 13.0898 29.2852 12.8672 29.1797L11.8594 28.6992L12.8789 28.1953C13.0898 28.0898 13.1484 27.832 13.0547 27.6445C12.9492 27.457 12.668 27.4219 12.4922 27.5391L11.5664 28.1953L11.6484 27.0586C11.6719 26.8359 11.5078 26.6484 11.2852 26.6484C11.0391 26.6484 10.8984 26.8359 10.9102 27.0586L10.9805 28.1953L10.043 27.5391C9.86719 27.4219 9.62109 27.4453 9.50391 27.6445C9.39844 27.832 9.44531 28.0781 9.66797 28.1953L10.6875 28.6992L9.66797 29.1914C9.44531 29.2969 9.38672 29.543 9.49219 29.7305C9.59766 29.9297 9.86719 29.9648 10.043 29.8477L10.9805 29.2148L10.9219 30.3281C10.9102 30.5391 11.0391 30.7383 11.2852 30.7383Z" fill="white" fill-opacity="0.85"/>
  <path d="M5.69531 28.9453C5.90625 28.9453 6.05859 28.7461 6.04688 28.5352L5.96484 27.4102L6.90234 28.043C7.06641 28.1602 7.33594 28.1133 7.44141 27.9375C7.55859 27.7617 7.48828 27.4922 7.26562 27.3867L6.25781 26.8945L7.27734 26.3906C7.48828 26.2852 7.54688 26.0391 7.45312 25.8516C7.35938 25.6641 7.06641 25.6289 6.90234 25.7461L5.96484 26.3906L6.05859 25.2656C6.08203 25.043 5.90625 24.8555 5.69531 24.8555C5.44922 24.8555 5.29688 25.043 5.30859 25.2656L5.39062 26.3906L4.44141 25.7461C4.27734 25.6289 4.03125 25.6523 3.91406 25.8516C3.80859 26.0391 3.85547 26.2852 4.07812 26.3906L5.08594 26.8945L4.07812 27.3867C3.85547 27.4922 3.79688 27.75 3.90234 27.9375C4.00781 28.1367 4.27734 28.1719 4.44141 28.0547L5.39062 27.4219L5.32031 28.5352C5.30859 28.7461 5.44922 28.9453 5.69531 28.9453Z" fill="white" fill-opacity="0.85"/>
  <path d="M20.1445 23.9648L20.9297 22.582C21.1406 22.2305 21.0352 21.8086 20.6836 21.5977C20.332 21.3984 19.9219 21.5273 19.7109 21.8672L18.9141 23.2852C18.7266 23.6133 18.8086 24.0234 19.1719 24.2344C19.5234 24.4336 19.9453 24.3047 20.1445 23.9648Z" fill="white" fill-opacity="0.425"/>
  <path d="M12.9727 25.7109L14.8008 22.5469C15 22.1836 14.8945 21.7734 14.5547 21.5742C14.1914 21.3633 13.7812 21.4805 13.582 21.8438L11.7422 25.0312C11.543 25.3711 11.6484 25.7812 12.0117 25.9805C12.3516 26.1797 12.7852 26.0625 12.9727 25.7109Z" fill="white" fill-opacity="0.425"/>
  <path d="M7.86328 23.918L8.64844 22.5352C8.85938 22.1836 8.75391 21.7617 8.40234 21.5508C8.05078 21.3516 7.64062 21.4805 7.42969 21.8203L6.63281 23.2383C6.44531 23.5664 6.52734 23.9766 6.89062 24.1875C7.24219 24.3867 7.66406 24.2695 7.86328 23.918Z" fill="white" fill-opacity="0.425"/>
  <path d="M6.35156 19.6992L20.8945 19.6992C24.7383 19.6992 27.5977 16.7812 27.5977 13.1719C27.5977 9.43359 24.5508 6.70312 20.5781 6.70312C19.1133 3.80859 16.3945 1.94531 13.0078 1.94531C8.60156 1.94531 4.96875 5.40234 4.58203 9.75C2.46094 10.3711 0.84375 12.2109 0.84375 14.6836C0.84375 17.4609 2.85938 19.6992 6.35156 19.6992ZM6.32812 17.8242C3.92578 17.8242 2.71875 16.4766 2.71875 14.7422C2.71875 13.3359 3.53906 12.0703 5.53125 11.543C6.17578 11.3672 6.41016 11.0625 6.46875 10.4062C6.73828 6.57422 9.60938 3.82031 13.0078 3.82031C15.6445 3.82031 17.7188 5.27344 18.9844 7.86328C19.2539 8.4375 19.6055 8.63672 20.2969 8.63672C23.7656 8.63672 25.7227 10.7227 25.7227 13.2188C25.7227 15.7734 23.6836 17.8242 21.0117 17.8242Z" fill="white" fill-opacity="0.85"/>
 </g>
</svg>
