<?xml version="1.0" encoding="UTF-8"?>
<!--Generator: Apple Native CoreSVG 341-->
<!DOCTYPE svg
PUBLIC "-//W3C//DTD SVG 1.1//EN"
       "http://www.w3.org/Graphics/SVG/1.1/DTD/svg11.dtd">
<svg version="1.1" xmlns="http://www.w3.org/2000/svg" xmlns:xlink="http://www.w3.org/1999/xlink" viewBox="0 -1.8223 24.4453 24.4453">
 <g>
  <rect height="20.8008" opacity="0" width="24.4453" x="0" y="0"/>
  <path d="M12.3398 20.8008C14.1445 20.8008 15.5391 19.4648 15.5391 17.5547C15.5391 14.7891 12.7148 13.2422 7.51172 13.2422C5.33203 13.2422 2.97656 13.6641 0.984375 14.3438C0.503906 14.5195 0.304688 14.9297 0.421875 15.3281C0.539062 15.7383 0.9375 15.9844 1.45312 15.8086C3.31641 15.1406 5.40234 14.7773 7.51172 14.7773C11.7656 14.7773 14.0156 15.8438 14.0156 17.5547C14.0156 18.6211 13.2656 19.2773 12.3398 19.2773C11.4141 19.2773 10.8516 18.6562 10.6875 17.6719C10.6172 17.2383 10.3008 16.875 9.79688 16.9102C9.26953 16.9453 9.05859 17.3906 9.12891 17.8711C9.33984 19.5 10.5469 20.8008 12.3398 20.8008Z" fill="white" fill-opacity="0.85"/>
  <path d="M19.7812 12.5391C22.5117 12.5391 24.4453 10.8047 24.4453 8.37891C24.4453 5.98828 22.6055 4.25391 20.3203 4.25391C18.1992 4.25391 16.6289 5.73047 16.3477 7.66406C16.2773 8.15625 16.5469 8.54297 16.9688 8.60156C17.4023 8.66016 17.7773 8.39062 17.8711 7.83984C18.0703 6.60938 19.0898 5.77734 20.3203 5.77734C21.75 5.77734 22.9102 6.84375 22.9102 8.37891C22.9102 9.9375 21.6797 11.0156 19.7812 11.0156C16.207 11.0156 12.3516 8.97656 7.66406 8.97656C5.25 8.97656 3.04688 9.36328 0.984375 10.0898C0.503906 10.2656 0.304688 10.6758 0.421875 11.0742C0.539062 11.4844 0.9375 11.7305 1.45312 11.5547C3.36328 10.8281 5.35547 10.5117 7.66406 10.5117C12.3398 10.5117 15.832 12.5391 19.7812 12.5391Z" fill="white" fill-opacity="0.85"/>
  <path d="M1.45312 7.05469C3.14062 6.51562 4.88672 6.23438 6.55078 6.23438C8.70703 6.23438 10.2891 6.58594 12.3281 6.58594C14.4375 6.58594 15.75 5.15625 15.75 3.29297C15.75 1.38281 14.2852 0.0117188 12.4805 0.0117188C11.1445 0.0117188 9.97266 0.855469 9.48047 1.96875C9.29297 2.35547 9.36328 2.80078 9.77344 3.01172C10.1484 3.19922 10.6055 3.08203 10.8516 2.61328C11.1094 2.01562 11.7422 1.54688 12.4805 1.54688C13.4531 1.54688 14.2148 2.22656 14.2148 3.29297C14.2148 4.35938 13.4766 5.0625 12.3281 5.0625C10.3828 5.0625 8.77734 4.71094 6.55078 4.71094C4.64062 4.71094 2.70703 5.05078 0.984375 5.60156C0.492188 5.74219 0.304688 6.16406 0.421875 6.5625C0.539062 6.97266 0.925781 7.20703 1.45312 7.05469Z" fill="white" fill-opacity="0.85"/>
 </g>
</svg>
